<svg width="14" height="11" viewBox="0 0 14 11" fill="none" xmlns="http://www.w3.org/2000/svg">
<path d="M9.01719 5.3092C9.25519 5.0777 9.63469 5.0832 9.86569 5.3222C10.0962 5.5602 10.0907 5.9397 9.85269 6.1702L5.71009 10.1173C5.59359 10.2303 5.44259 10.2868 5.29209 10.2868C5.14159 10.2868 4.99059 10.2303 4.87459 10.1173L0.731084 6.1702C0.493584 5.9397 0.487584 5.5602 0.718084 5.3222C0.949084 5.0832 1.32908 5.0777 1.56658 5.3092L4.69209 8.2693V1.71338C4.69209 1.16109 5.1398 0.713379 5.69209 0.713379H12.7876C13.154 0.713379 13.451 1.01041 13.451 1.37681C13.451 1.74321 13.154 2.04024 12.7876 2.04024H6.39209C6.11594 2.04024 5.89209 2.2641 5.89209 2.54024V3.30075V8.2693L9.01719 5.3092Z" fill="#090632"/>
</svg>
