<svg width="16" height="17" viewBox="0 0 16 17" fill="none" xmlns="http://www.w3.org/2000/svg">
<path fill-rule="evenodd" clip-rule="evenodd" d="M7.742 11.0527L15.395 3.37736C15.6295 3.14268 15.6295 2.76157 15.395 2.52639C15.1605 2.29121 14.7805 2.29121 14.5465 2.52639L7.3175 9.77596L4.592 7.04251C4.3575 6.80733 3.9775 6.80733 3.7435 7.04251C3.509 7.2777 3.509 7.6583 3.7435 7.89349L6.8935 11.0527C7.0105 11.17 7.164 11.2292 7.3175 11.2292C7.4715 11.2292 7.625 11.17 7.742 11.0527ZM13.5895 16.5H2.411C1.0815 16.5 0 15.4153 0 14.082V2.91753C0 1.58465 1.0815 0.5 2.411 0.5H9.691C10.0225 0.5 10.291 0.769784 10.291 1.10175C10.291 1.43422 10.0225 1.7035 9.691 1.7035H2.411C1.7435 1.7035 1.2 2.24808 1.2 2.91753V14.082C1.2 14.7514 1.7435 15.296 2.411 15.296H13.5895C14.257 15.296 14.8 14.7514 14.8 14.082V7.94213C14.8 7.60966 15.069 7.34038 15.4 7.34038C15.7315 7.34038 16 7.60966 16 7.94213V14.082C16 15.4153 14.9185 16.5 13.5895 16.5Z" fill="#090632"/>
</svg>
