<svg width="15" height="17" viewBox="0 0 15 17" fill="none" xmlns="http://www.w3.org/2000/svg">
<path fill-rule="evenodd" clip-rule="evenodd" d="M8.34051 15.2965C8.34851 15.2995 8.36701 15.3045 8.39101 15.287C8.40701 15.275 8.42651 15.252 8.42651 15.211V10.5327C8.42651 9.05023 9.11099 7.63028 10.2595 6.72781L13.0949 4.05339C13.1764 3.97639 13.2284 3.87039 13.2409 3.7549L13.4444 1.89496C13.4524 1.82146 13.4194 1.77296 13.3994 1.74996C13.3789 1.72696 13.3434 1.69996 13.2914 1.69996H1.35373C1.30173 1.69996 1.26673 1.72696 1.24623 1.74996C1.22574 1.77246 1.19324 1.82096 1.20074 1.89446L1.40723 3.8339C1.41973 3.95139 1.47273 4.05889 1.55672 4.13689L4.35214 6.72531C5.5231 7.62728 6.22108 9.05723 6.22108 10.5577V14.5746C6.22108 14.6146 6.24408 14.6506 6.27558 14.6606L8.34051 15.2965ZM8.35951 16.5C8.23552 16.5 8.11052 16.4815 7.98752 16.4435H7.98702L5.92209 15.807C5.38311 15.641 5.02112 15.1455 5.02112 14.5746V10.5577C5.02112 9.42022 4.49063 8.33775 3.60216 7.66278L3.55766 7.62528L0.74125 5.01686C0.44426 4.74187 0.257265 4.36688 0.213767 3.96089L0.00777327 2.02145C-0.0337254 1.62996 0.0922706 1.23848 0.353762 0.947486C0.609754 0.662995 0.974243 0.5 1.35373 0.5H13.2914C13.6718 0.5 14.0368 0.663495 14.2928 0.948986C14.5543 1.24098 14.6798 1.63296 14.6368 2.02545L14.4338 3.88539C14.3903 4.28388 14.2073 4.65337 13.9183 4.92636L11.0179 7.65778C10.1465 8.33376 9.62647 9.40822 9.62647 10.5327V15.211C9.62647 15.621 9.43098 16.0105 9.10399 16.2525C8.883 16.4155 8.624 16.5 8.35951 16.5Z" fill="#090632"/>
</svg>
