<svg width="171" height="42" viewBox="0 0 171 42" fill="none" xmlns="http://www.w3.org/2000/svg">
<path d="M31.7761 28.7865L17.6813 36.9246L3.56563 28.7865V25.179C3.56563 21.8231 6.29229 19.0754 9.60624 19.0335H9.73208C13.046 19.0335 14.661 20.4178 16.5278 22.0118C18.6252 23.7947 20.9953 25.8292 25.6096 25.8292H25.7565C31.042 25.7872 35.3417 21.4246 35.3417 16.1181V10.455L17.6813 0.261475L0 10.434V17.2087H0.545332C1.36333 16.2649 2.45399 15.363 3.56563 14.7338V12.4895L17.6813 4.37244L31.7761 12.5105V16.1181C31.7761 19.4739 29.0494 22.2216 25.7355 22.2635H25.6096C22.3167 22.2635 20.7855 20.9631 18.8349 19.3062C16.7375 17.5024 14.3674 15.4679 9.73208 15.4679H9.58526C4.29974 15.5098 0 19.8725 0 25.179V30.842L17.6813 41.0355L35.3417 30.842V24.2561H34.7964C34.0203 25.179 32.8877 26.1438 31.7761 26.773V28.7865Z" fill="white"/>
<path d="M64.7897 7.26695H68.4183V30.7372H64.7897V28.3252C63.4054 30.2338 61.4758 31.1777 58.9169 31.1777C56.6098 31.1777 54.6591 30.3387 53.0231 28.6188C51.3871 26.8989 50.5692 24.8015 50.5692 22.3475C50.5692 19.8725 51.3662 17.7961 53.0231 16.0762C54.6801 14.3563 56.6098 13.5173 58.9169 13.5173C61.4758 13.5173 63.4054 14.4611 64.7897 16.3279V7.26695ZM59.4832 27.7169C60.9934 27.7169 62.2728 27.2135 63.2796 26.2068C64.2864 25.158 64.7897 23.8996 64.7897 22.3475C64.7897 20.7954 64.2864 19.5369 63.2796 18.5302C62.2728 17.4814 60.9934 16.9781 59.4832 16.9781C57.9731 16.9781 56.6937 17.4814 55.6869 18.5302C54.6801 19.5369 54.1767 20.8164 54.1767 22.3475C54.1767 23.8996 54.6801 25.158 55.6869 26.2068C56.6937 27.2135 57.9731 27.7169 59.4832 27.7169Z" fill="white"/>
<path d="M84.128 13.9787H87.9873L81.5481 31.2825C79.9331 35.6032 77.2274 37.6797 73.3682 37.449V34.0511C75.6544 34.177 76.9338 33.0863 77.8357 30.7582L78.0035 30.4226L70.8932 13.9577H74.8573L79.8492 26.1229L84.128 13.9787Z" fill="white"/>
<path d="M102.061 13.9786H106.025L99.481 30.7581H95.2862L88.7422 13.9786H92.7063L97.4046 26.731L102.061 13.9786Z" fill="white"/>
<path d="M110.535 23.8994C111.08 26.4583 113.115 27.8636 115.904 27.8636C117.813 27.8636 119.26 27.1505 120.225 25.7871L123.203 27.528C121.567 29.982 119.113 31.1775 115.862 31.1775C113.136 31.1775 110.933 30.3385 109.255 28.7025C107.577 27.0246 106.738 24.9062 106.738 22.3683C106.738 19.8514 107.577 17.7749 109.213 16.097C110.849 14.3771 113.01 13.5381 115.59 13.5381C118.044 13.5381 120.057 14.419 121.63 16.118C123.203 17.8379 124.021 19.9353 124.021 22.3893C124.021 22.7668 123.979 23.2702 123.895 23.8994H110.535ZM120.351 20.9421C119.847 18.2154 117.939 16.8101 115.548 16.8101C112.863 16.8101 110.996 18.3832 110.493 20.9421H120.351Z" fill="white"/>
<path d="M142.29 20.4387V30.7371H138.661V20.8162C138.661 18.2993 137.214 16.936 134.907 16.936C132.348 16.936 130.649 18.509 130.649 21.76V30.758H127.02V13.9786H130.649V16.118C131.761 14.3981 133.46 13.5381 135.851 13.5381C139.71 13.5381 142.29 16.1599 142.29 20.4387Z" fill="white"/>
<path d="M146.128 10.7906C145.226 9.84672 145.226 8.44144 146.128 7.53955C147.03 6.5957 148.519 6.5957 149.421 7.53955C150.323 8.44144 150.323 9.84672 149.379 10.7906C148.477 11.6925 147.072 11.6925 146.128 10.7906ZM145.96 30.7371V13.9577H149.589V30.7371H145.96Z" fill="white"/>
<path d="M166.977 13.9786H170.605V30.758H166.977V28.346C165.592 30.2547 163.663 31.1985 161.104 31.1985C158.797 31.1985 156.846 30.3595 155.21 28.6396C153.574 26.9197 152.756 24.8223 152.756 22.3683C152.756 19.8933 153.553 17.8169 155.21 16.097C156.867 14.3771 158.797 13.5381 161.104 13.5381C163.663 13.5381 165.592 14.482 166.977 16.3487V13.9786ZM161.691 27.7168C163.201 27.7168 164.481 27.2134 165.487 26.2066C166.494 25.1579 166.998 23.8994 166.998 22.3473C166.998 20.7952 166.494 19.5368 165.487 18.53C164.481 17.4813 163.201 16.9779 161.691 16.9779C160.181 16.9779 158.901 17.4813 157.895 18.53C156.888 19.5368 156.385 20.8162 156.385 22.3473C156.385 23.8994 156.888 25.1579 157.895 26.2066C158.901 27.2134 160.181 27.7168 161.691 27.7168Z" fill="white"/>
</svg>
