<svg width="8" height="9" viewBox="0 0 8 9" fill="none" xmlns="http://www.w3.org/2000/svg">
<path fill-rule="evenodd" clip-rule="evenodd" d="M4.91449 4.53299L7.81045 1.63703C8.06318 1.38429 8.06318 0.97474 7.81045 0.722542C7.55771 0.469805 7.1487 0.469805 6.89596 0.722542L4 3.6185L1.159 0.776969C0.906268 0.524772 0.496716 0.524772 0.244519 0.776969C-0.00821796 1.02971 -0.00821796 1.43926 0.24398 1.69199L3.08551 4.53299L0.189552 7.42895C-0.0631841 7.68169 -0.0631841 8.09124 0.189552 8.34344C0.315651 8.47007 0.481089 8.53312 0.646526 8.53312C0.811963 8.53312 0.977939 8.47007 1.10404 8.34344L4 5.44748L6.841 8.28901C6.96709 8.41511 7.13253 8.47816 7.29851 8.47816C7.46395 8.47816 7.62938 8.41511 7.75548 8.28901C8.00822 8.03627 8.00822 7.62672 7.75548 7.37399L4.91449 4.53299Z" fill="#090632"/>
</svg>
