<svg width="14" height="17" viewBox="0 0 14 17" fill="none" xmlns="http://www.w3.org/2000/svg">
<path fill-rule="evenodd" clip-rule="evenodd" d="M8 11.59V6.481C8 6.149 8.269 5.881 8.6 5.881C8.932 5.881 9.2 6.149 9.2 6.481V11.59C9.2 11.922 8.932 12.19 8.6 12.19C8.269 12.19 8 11.922 8 11.59ZM4.601 11.59V6.481C4.601 6.149 4.869 5.881 5.201 5.881C5.532 5.881 5.801 6.149 5.801 6.481V11.59C5.801 11.922 5.532 12.19 5.201 12.19C4.869 12.19 4.601 11.922 4.601 11.59ZM10.909 14.168C10.884 14.803 10.368 15.3 9.734 15.3H4.067C3.433 15.3 2.917 14.803 2.892 14.168L2.483 3.652H11.318L10.909 14.168ZM5.8 1.7H8.001L8.093 2.452H5.708L5.8 1.7ZM13.2 2.452H9.302L9.169 1.367C9.108 0.873 8.687 0.5 8.189 0.5H5.612C5.114 0.5 4.692 0.873 4.631 1.368L4.499 2.452H0.601C0.269 2.452 0 2.72 0 3.052C0 3.383 0.269 3.652 0.601 3.652H1.282L1.693 14.215C1.743 15.496 2.786 16.5 4.067 16.5H9.734C11.015 16.5 12.058 15.496 12.108 14.215L12.519 3.652H13.2C13.532 3.652 13.8 3.383 13.8 3.052C13.8 2.72 13.532 2.452 13.2 2.452Z" fill="#090632"/>
</svg>
