<svg width="16" height="17" viewBox="0 0 16 17" fill="none" xmlns="http://www.w3.org/2000/svg">
<path fill-rule="evenodd" clip-rule="evenodd" d="M14.3958 13.8495V9.28808C14.3958 8.95658 14.1268 8.68808 13.7958 8.68808C13.4643 8.68808 13.1958 8.95658 13.1958 9.28808V13.8495C13.1958 14.453 12.7038 14.9435 12.0988 14.9435H2.29747C1.69248 14.9435 1.20048 14.453 1.20048 13.8495V4.06515C1.20048 3.46166 1.69248 2.97117 2.29747 2.97117H7.1979C7.52939 2.97117 7.79839 2.70217 7.79839 2.37067C7.79839 2.03968 7.52939 1.77068 7.1979 1.77068H2.29747C1.03099 1.77068 0 2.80017 0 4.06515V13.8495C0 15.1145 1.03099 16.1435 2.29747 16.1435H12.0988C13.3653 16.1435 14.3958 15.1145 14.3958 13.8495ZM5.43742 9.22308L5.27392 10.8911L6.9649 10.7871L12.5998 5.39413L11.0768 3.82565L5.43742 9.22308ZM4.60843 12.1335C4.44594 12.1335 4.28994 12.068 4.17644 11.95C4.05444 11.8235 3.99394 11.65 4.01094 11.475L4.26444 8.88458C4.27844 8.74208 4.34344 8.60909 4.44694 8.50959L10.6773 2.54717C10.9158 2.31918 11.2928 2.32618 11.5228 2.56267L13.8818 4.99164C13.9933 5.10664 14.0543 5.26063 14.0513 5.42063C14.0483 5.58063 13.9818 5.73263 13.8663 5.84313L7.63539 11.806C7.53339 11.9035 7.39939 11.9625 7.2579 11.971L4.64543 12.1325C4.63293 12.133 4.62043 12.1335 4.60843 12.1335ZM13.1543 1.81218L14.6773 3.38066L14.7623 3.29916C14.7928 3.26966 14.7998 3.23616 14.8003 3.21316C14.8008 3.19016 14.7948 3.15616 14.7653 3.12566L13.4178 1.73868C13.3683 1.68718 13.2853 1.68568 13.2338 1.73568L13.1543 1.81218ZM14.6628 4.82664C14.5063 4.82664 14.3498 4.76564 14.2323 4.64464L11.8733 2.21518C11.7618 2.10068 11.7008 1.94618 11.7038 1.78668C11.7063 1.62718 11.7728 1.47469 11.8878 1.36419L12.4028 0.870196C12.9288 0.364203 13.7708 0.378703 14.2793 0.902695L15.6263 2.28968C15.8733 2.54417 16.0063 2.87967 15.9998 3.23416C15.9938 3.58866 15.8493 3.91915 15.5933 4.16465L15.0783 4.65964C14.9618 4.77114 14.8123 4.82664 14.6628 4.82664Z" fill="#090632"/>
</svg>
