<svg width="16" height="15" viewBox="0 0 16 15" fill="none" xmlns="http://www.w3.org/2000/svg">
<path fill-rule="evenodd" clip-rule="evenodd" d="M1.76687 6.32465C1.76687 3.53615 4.04937 1.26648 6.85529 1.26648C9.66029 1.26648 11.9437 3.53615 11.9437 6.32465C11.9437 9.11315 9.66029 11.3819 6.85529 11.3819C4.04937 11.3819 1.76687 9.11315 1.76687 6.32465ZM15.1713 13.8202L11.6018 10.2691C12.5001 9.20023 13.0437 7.82432 13.0437 6.32465C13.0437 2.92931 10.2671 0.166481 6.85529 0.166481C3.44254 0.166481 0.66687 2.92931 0.66687 6.32465C0.66687 9.71998 3.44254 12.4819 6.85529 12.4819C8.36412 12.4819 9.74645 11.9411 10.8217 11.0455L14.3949 14.5994C14.503 14.7066 14.6433 14.7598 14.7835 14.7598C14.9247 14.7598 15.0659 14.7057 15.1731 14.5976C15.3876 14.3821 15.3867 14.0338 15.1713 13.8202Z" fill="#090632"/>
</svg>
